<?xml version="1.0" encoding="UTF-8" standalone="no"?>
<!-- Created with Inkscape (http://www.inkscape.org/) -->

<svg
   xmlns:dc="http://purl.org/dc/elements/1.1/"
   xmlns:cc="http://creativecommons.org/ns#"
   xmlns:rdf="http://www.w3.org/1999/02/22-rdf-syntax-ns#"
   xmlns:svg="http://www.w3.org/2000/svg"
   xmlns="http://www.w3.org/2000/svg"
   xmlns:sodipodi="http://sodipodi.sourceforge.net/DTD/sodipodi-0.dtd"
   xmlns:inkscape="http://www.inkscape.org/namespaces/inkscape"
   width="202.64818mm"
   height="118.04489mm"
   viewBox="0 0 202.64818 118.04489"
   version="1.1"
   id="svg1130"
   inkscape:version="0.92.4 (f8dce91, 2019-08-02)"
   sodipodi:docname="cloud-logo-small.svg">
  <defs
     id="defs1124" />
  <sodipodi:namedview
     id="base"
     pagecolor="#ffffff"
     bordercolor="#666666"
     borderopacity="1.0"
     inkscape:pageopacity="0.0"
     inkscape:pageshadow="2"
     inkscape:zoom="0.35"
     inkscape:cx="-476.86896"
     inkscape:cy="11.014668"
     inkscape:document-units="mm"
     inkscape:current-layer="layer1"
     showgrid="false"
     inkscape:window-width="1850"
     inkscape:window-height="1016"
     inkscape:window-x="70"
     inkscape:window-y="27"
     inkscape:window-maximized="1" />
  <metadata
     id="metadata1127">
    <rdf:RDF>
      <cc:Work
         rdf:about="">
        <dc:format>image/svg+xml</dc:format>
        <dc:type
           rdf:resource="http://purl.org/dc/dcmitype/StillImage" />
        <dc:title></dc:title>
      </cc:Work>
    </rdf:RDF>
  </metadata>
  <g
     inkscape:label="Layer 1"
     inkscape:groupmode="layer"
     id="layer1"
     transform="translate(-4.4684435,-68.55551)">
    <path
       style="opacity:1;fill:#323680;fill-opacity:1;stroke:#323680;stroke-width:0.47793213;stroke-miterlimit:4;stroke-dasharray:none;stroke-opacity:1"
       d="m 106.19344,68.826622 c 29.60908,-1.204607 64.11874,31.720618 65.28557,62.288128 1.16684,30.56751 -19.7029,-29.98462 -49.31198,-28.78001 -29.609071,1.2046 -75.141853,64.45823 -76.308689,33.89072 -1.166836,-30.56751 30.726026,-66.194232 60.335099,-67.398838 z"
       id="rect1677"
       inkscape:connector-curvature="0"
       sodipodi:nodetypes="sssss" />
    <path
       style="opacity:1;fill:#323680;fill-opacity:1;stroke:#323680;stroke-width:0.44116527;stroke-miterlimit:4;stroke-dasharray:none;stroke-opacity:1"
       d="m 134.80385,92.731801 c 28.6764,-1.059781 70.88776,18.857399 72.01784,45.749849 1.13009,26.89245 -17.93592,-19.79817 -46.61232,-18.73837 -28.67641,1.05977 -73.539178,50.94977 -74.66926,24.05732 -1.130081,-26.89245 20.58733,-50.00902 49.26374,-51.068799 z"
       id="rect1677-3"
       inkscape:connector-curvature="0"
       sodipodi:nodetypes="sssss" />
    <path
       style="opacity:1;fill:#323680;fill-opacity:1;stroke:#323680;stroke-width:0.4888809;stroke-miterlimit:4;stroke-dasharray:none;stroke-opacity:1"
       d="m 80.058381,106.9658 h 92.185679 c 19.18398,0 34.62812,17.70401 34.62812,39.69508 0,21.99107 -15.44414,39.69508 -34.62812,39.69508 H 80.058381 c -19.183979,0 -34.628121,-17.70401 -34.628121,-39.69508 0,-21.99107 15.444142,-39.69508 34.628121,-39.69508 z"
       id="rect2497"
       inkscape:connector-curvature="0" />
    <path
       style="opacity:1;fill:#323680;fill-opacity:1;stroke:#323680;stroke-width:0.47793213;stroke-miterlimit:4;stroke-dasharray:none;stroke-opacity:1"
       d="M 106.19344,68.826622 C 76.58436,67.622012 42.0747,100.54724 40.90787,131.11475 c -1.16684,30.56751 19.7029,-29.98462 49.31198,-28.78001 29.60907,1.2046 75.14185,64.45823 76.30869,33.89072 1.16684,-30.56751 -30.72603,-66.194228 -60.3351,-67.398838 z"
       id="rect1677-6"
       inkscape:connector-curvature="0"
       sodipodi:nodetypes="sssss" />
    <path
       style="opacity:1;fill:#323680;fill-opacity:1;stroke:#323680;stroke-width:0.42059621;stroke-miterlimit:4;stroke-dasharray:none;stroke-opacity:1"
       d="M 74.348067,96.773143 C 45.982547,95.799323 7.63057,115.61285 6.51274,140.32396 5.3949,165.03506 25.38815,116.08407 53.75368,117.0579 c 28.36553,0.97381 71.98601,52.10872 73.10384,27.39762 1.11783,-24.71111 -24.14391,-46.708557 -52.509453,-47.682377 z"
       id="rect1677-3-7"
       inkscape:connector-curvature="0"
       sodipodi:nodetypes="sssss" />
    <path
       transform="scale(-1,1)"
       style="opacity:1;fill:#323680;fill-opacity:1;stroke:#323680;stroke-width:0.4859646;stroke-miterlimit:4;stroke-dasharray:none;stroke-opacity:1"
       d="m -132.15734,108.3007 h 92.645186 c 19.279604,0 34.8007282,17.40665 34.8007282,39.02836 0,21.62171 -15.5211242,39.02836 -34.8007282,39.02836 h -92.645186 c -19.2796,0 -34.80073,-17.40665 -34.80073,-39.02836 0,-21.62171 15.52113,-39.02836 34.80073,-39.02836 z"
       id="rect2497-5"
       inkscape:connector-curvature="0" />
  </g>
</svg>
