<?xml version="1.0" encoding="UTF-8" standalone="no"?>
<!-- Generator: Adobe Illustrator 23.0.0, SVG Export Plug-In . SVG Version: 6.00 Build 0)  -->

<svg
   xmlns:dc="http://purl.org/dc/elements/1.1/"
   xmlns:cc="http://creativecommons.org/ns#"
   xmlns:rdf="http://www.w3.org/1999/02/22-rdf-syntax-ns#"
   xmlns:svg="http://www.w3.org/2000/svg"
   xmlns="http://www.w3.org/2000/svg"
   xmlns:sodipodi="http://sodipodi.sourceforge.net/DTD/sodipodi-0.dtd"
   xmlns:inkscape="http://www.inkscape.org/namespaces/inkscape"
   version="1.1"
   id="Ñëîé_1"
   x="0px"
   y="0px"
   viewBox="0 0 1600 385.025"
   xml:space="preserve"
   sodipodi:docname="foundation-banner-wave-flip.svg"
   inkscape:version="0.92.4 (f8dce91, 2019-08-02)"
   width="1600"
   height="385.02499"><metadata
   id="metadata298"><rdf:RDF><cc:Work
       rdf:about=""><dc:format>image/svg+xml</dc:format><dc:type
         rdf:resource="http://purl.org/dc/dcmitype/StillImage" /><dc:title></dc:title></cc:Work></rdf:RDF></metadata><defs
   id="defs296" /><sodipodi:namedview
   pagecolor="#ffffff"
   bordercolor="#666666"
   borderopacity="1"
   objecttolerance="10"
   gridtolerance="10"
   guidetolerance="10"
   inkscape:pageopacity="0"
   inkscape:pageshadow="2"
   inkscape:window-width="1850"
   inkscape:window-height="1016"
   id="namedview294"
   showgrid="false"
   inkscape:zoom="0.35355339"
   inkscape:cx="352.85881"
   inkscape:cy="798.4386"
   inkscape:window-x="70"
   inkscape:window-y="27"
   inkscape:window-maximized="1"
   inkscape:current-layer="Ñëîé_1" />
<style
   type="text/css"
   id="style2">
	.st0{display:none;}
	.st1{display:inline;}
	.st2{enable-background:new    ;}
	.st3{fill:url(#SVGID_1_);}
	.st4{fill:url(#SVGID_2_);}
	.st5{fill:#FFFFFF;}
	.st6{fill:url(#SVGID_3_);}
	.st7{fill:url(#SVGID_4_);}
	.st8{fill:url(#SVGID_5_);}
	.st9{fill:url(#SVGID_6_);}
	.st10{fill:url(#SVGID_7_);}
	.st11{fill:url(#SVGID_8_);}
	.st12{fill:url(#SVGID_9_);}
	.st13{fill:url(#SVGID_10_);}
	.st14{fill:url(#SVGID_11_);}
	.st15{fill:url(#SVGID_12_);}
	.st16{fill:url(#SVGID_13_);}
	.st17{fill:url(#SVGID_14_);}
	.st18{fill:url(#SVGID_15_);}
	.st19{fill:url(#SVGID_16_);}
	.st20{fill:url(#SVGID_17_);}
	.st21{fill:url(#SVGID_18_);}
	.st22{fill:url(#SVGID_19_);}
	.st23{fill:url(#SVGID_20_);}
	.st24{fill:url(#SVGID_21_);}
	.st25{fill:url(#SVGID_22_);}
	.st26{fill:url(#SVGID_23_);}
	.st27{fill:url(#SVGID_24_);}
	.st28{fill:url(#SVGID_25_);}
	.st29{fill:url(#SVGID_26_);}
	.st30{fill:url(#SVGID_27_);}
	.st31{fill:url(#SVGID_28_);}
	.st32{fill:url(#SVGID_29_);}
</style>
<g
   id="g289"
   transform="translate(0,46.025)">
	<g
   id="g287">
		<g
   class="st0"
   id="g285"
   style="display:none">
			<g
   class="st1"
   id="g283"
   style="display:inline">
				<g
   id="g22">
					<g
   class="st2"
   id="g20"
   style="enable-background:new">
						
							<linearGradient
   id="SVGID_1_"
   gradientUnits="userSpaceOnUse"
   x1="1331.6001"
   y1="1369.7097"
   x2="1339.6864"
   y2="1369.7097"
   gradientTransform="matrix(1,0,0,-1,0,545.89)">
							<stop
   offset="0"
   style="stop-color:#58258C"
   id="stop4" />
							<stop
   offset="1"
   style="stop-color:#FFFFFF"
   id="stop6" />
						</linearGradient>
						<path
   class="st3"
   d="m 1338,-827.2 c -0.5,-0.3 -0.9,-0.3 -1.2,-0.1 l -5.2,3 c 0.3,-0.2 0.7,-0.2 1.2,0.1 0.9,0.5 1.7,1.8 1.7,2.9 0,0.5 -0.2,0.9 -0.5,1.1 l 5.2,-3 c 0.3,-0.2 0.5,-0.6 0.5,-1.1 0,-1 -0.8,-2.3 -1.7,-2.9 z"
   id="path9"
   inkscape:connector-curvature="0"
   style="fill:url(#SVGID_1_)" />
						<g
   id="g18">
							
								<linearGradient
   id="SVGID_2_"
   gradientUnits="userSpaceOnUse"
   x1="1331.1146"
   y1="1368.0619"
   x2="1334.4895"
   y2="1368.0619"
   gradientTransform="matrix(1,0,0,-1,0,545.89)">
								<stop
   offset="0"
   style="stop-color:#58258C"
   id="stop11" />
								<stop
   offset="1"
   style="stop-color:#FFFFFF"
   id="stop13" />
							</linearGradient>
							<path
   class="st4"
   d="m 1332.8,-824.1 c 0.9,0.5 1.7,1.8 1.7,2.9 0,1.1 -0.8,1.5 -1.7,1 -0.9,-0.5 -1.7,-1.8 -1.7,-2.9 0,-1.1 0.8,-1.6 1.7,-1 z"
   id="path16"
   inkscape:connector-curvature="0"
   style="fill:url(#SVGID_2_)" />
						</g>
					</g>
				</g>
				<g
   id="g26">
					<polygon
   class="st5"
   points="1355.9,-821.8 1342.3,-814 1324.6,-838 1326.8,-839.3 1342.4,-828.2 "
   id="polygon24"
   style="fill:#ffffff" />
				</g>
				<g
   id="g35">
					
						<linearGradient
   id="SVGID_3_"
   gradientUnits="userSpaceOnUse"
   x1="1362.5"
   y1="1382.14"
   x2="1375.8375"
   y2="1382.14"
   gradientTransform="matrix(1,0,0,-1,0,545.89)">
						<stop
   offset="0"
   style="stop-color:#FFFFFF"
   id="stop28" />
						<stop
   offset="1"
   style="stop-color:#58258C"
   id="stop30" />
					</linearGradient>
					<polygon
   class="st6"
   points="1362.5,-840.7 1364.3,-841.8 1375.8,-835.9 1370.1,-830.7 "
   id="polygon33"
   style="fill:url(#SVGID_3_)" />
				</g>
				
					<linearGradient
   id="SVGID_4_"
   gradientUnits="userSpaceOnUse"
   x1="1355.2996"
   y1="1357.4957"
   x2="1348.327"
   y2="1368.1206"
   gradientTransform="matrix(1,0,0,-1,0,545.89)">
					<stop
   offset="0"
   style="stop-color:#58258C"
   id="stop37" />
					<stop
   offset="1"
   style="stop-color:#FFFFFF"
   id="stop39" />
				</linearGradient>
				<path
   class="st7"
   d="m 1375.8,-835.9 -9.5,4.1 c -0.7,0.3 -1.5,0.7 -2.2,1.1 l -35.5,20.5 c -0.4,0.2 -0.7,0.5 -0.9,0.9 -0.1,0.1 -0.1,0.2 -0.2,0.3 -0.1,0.1 -0.1,0.3 -0.2,0.4 0,0.1 -0.1,0.2 -0.1,0.2 -0.1,0.1 -0.1,0.2 -0.2,0.3 0,0.1 -0.1,0.2 -0.1,0.2 0,0.1 -0.1,0.1 -0.1,0.2 -0.2,0.4 -0.5,0.8 -0.7,1.2 0,0 0,0.1 -0.1,0.1 -0.1,0.1 -0.1,0.2 -0.2,0.4 0,0.1 -0.1,0.1 -0.1,0.2 -0.1,0.1 -0.1,0.3 -0.2,0.4 v 0 0 c 0,0 -3.1,4 -1.2,5.4 2,1.5 7.4,-0.1 8.6,-0.5 0.1,0 0.1,0 0.2,-0.1 0.1,0 0.1,0 0.1,0 v 0 c 0.1,-0.1 0.2,-0.1 0.4,-0.2 l 36.3,-22.6 c 1.2,-0.7 2.3,-1.6 3.4,-2.6 l 5.9,-5.5 v -2.7 z"
   id="path42"
   inkscape:connector-curvature="0"
   style="fill:url(#SVGID_4_)" />
				
					<linearGradient
   id="SVGID_5_"
   gradientUnits="userSpaceOnUse"
   x1="1326.9557"
   y1="1355.4559"
   x2="1332.7896"
   y2="1349.7233"
   gradientTransform="matrix(1,0,0,-1,0,545.89)">
					<stop
   offset="0"
   style="stop-color:#58258C"
   id="stop44" />
					<stop
   offset="1"
   style="stop-color:#151B4E"
   id="stop46" />
				</linearGradient>
				<path
   class="st8"
   d="m 1334.1,-805.3 v 0 c 0.2,-0.6 -0.2,-1.2 -0.9,-1.3 -3.6,-0.3 -5,-1.5 -5.6,-2.4 v 0 c -0.1,0.1 -0.1,0.3 -0.2,0.4 0,0.1 -0.1,0.2 -0.1,0.2 -0.1,0.1 -0.1,0.2 -0.2,0.3 0,0.1 -0.1,0.2 -0.1,0.2 0,0.1 -0.1,0.1 -0.1,0.2 -0.1,0.2 -0.2,0.4 -0.3,0.6 l 0.7,1.3 c 0.3,0.5 0.9,0.9 1.5,0.9 l 4.4,0.1 c 0.3,0.2 0.7,-0.1 0.9,-0.5 z"
   id="path49"
   inkscape:connector-curvature="0"
   style="fill:url(#SVGID_5_)" />
				<g
   id="g69">
					<g
   class="st2"
   id="g67"
   style="enable-background:new">
						
							<linearGradient
   id="SVGID_6_"
   gradientUnits="userSpaceOnUse"
   x1="1359.4446"
   y1="1352.6096"
   x2="1367.5309"
   y2="1352.6096"
   gradientTransform="matrix(1,0,0,-1,0,545.89)">
							<stop
   offset="0"
   style="stop-color:#58258C"
   id="stop51" />
							<stop
   offset="1"
   style="stop-color:#FFFFFF"
   id="stop53" />
						</linearGradient>
						<path
   class="st9"
   d="m 1365.8,-810.1 c -0.5,-0.3 -0.9,-0.3 -1.2,-0.1 l -5.2,3 c 0.3,-0.2 0.7,-0.2 1.2,0.1 0.9,0.5 1.7,1.8 1.7,2.9 0,0.5 -0.2,0.9 -0.5,1.1 l 5.2,-3 c 0.3,-0.2 0.5,-0.6 0.5,-1.1 0,-1.1 -0.7,-2.4 -1.7,-2.9 z"
   id="path56"
   inkscape:connector-curvature="0"
   style="fill:url(#SVGID_6_)" />
						<g
   id="g65">
							
								<linearGradient
   id="SVGID_7_"
   gradientUnits="userSpaceOnUse"
   x1="1358.9529"
   y1="1351.0399"
   x2="1362.3276"
   y2="1351.0399"
   gradientTransform="matrix(1,0,0,-1,0,545.89)">
								<stop
   offset="0"
   style="stop-color:#58258C"
   id="stop58" />
								<stop
   offset="1"
   style="stop-color:#FFFFFF"
   id="stop60" />
							</linearGradient>
							<path
   class="st10"
   d="m 1360.6,-807.1 c 0.9,0.5 1.7,1.8 1.7,2.9 0,1.1 -0.8,1.5 -1.7,1 -0.9,-0.5 -1.7,-1.8 -1.7,-2.9 0.1,-1.1 0.8,-1.5 1.7,-1 z"
   id="path63"
   inkscape:connector-curvature="0"
   style="fill:url(#SVGID_7_)" />
						</g>
					</g>
				</g>
				<g
   id="g78">
					
						<linearGradient
   id="SVGID_8_"
   gradientUnits="userSpaceOnUse"
   x1="1349.0082"
   y1="1362.7456"
   x2="1394.1881"
   y2="1344.8221"
   gradientTransform="matrix(1,0,0,-1,0,545.89)">
						<stop
   offset="0"
   style="stop-color:#58258C"
   id="stop71" />
						<stop
   offset="1"
   style="stop-color:#FFFFFF"
   id="stop73" />
					</linearGradient>
					<path
   class="st11"
   d="m 1390.2,-802.2 -2.2,1.3 -38.3,-9.4 c -1.2,-0.3 -1.5,-1.9 -0.4,-2.6 l 9.8,-5.7 c 0.5,-0.3 1.1,-0.2 1.5,0.1 l 10.4,7.3 z"
   id="path76"
   inkscape:connector-curvature="0"
   style="fill:url(#SVGID_8_)" />
				</g>
				<g
   id="g104">
					<g
   class="st2"
   id="g102"
   style="enable-background:new">
						<g
   id="g87">
							
								<linearGradient
   id="SVGID_9_"
   gradientUnits="userSpaceOnUse"
   x1="1376.4498"
   y1="1389.04"
   x2="1379.8102"
   y2="1389.04"
   gradientTransform="matrix(1,0,0,-1,0,545.89)">
								<stop
   offset="0"
   style="stop-color:#58258C"
   id="stop80" />
								<stop
   offset="1"
   style="stop-color:#FFFFFF"
   id="stop82" />
							</linearGradient>
							<polygon
   class="st12"
   points="1379.3,-844.1 1379.8,-843.8 1377,-842.2 1376.4,-842.5 "
   id="polygon85"
   style="fill:url(#SVGID_9_)" />
						</g>
						<g
   id="g96">
							
								<linearGradient
   id="SVGID_10_"
   gradientUnits="userSpaceOnUse"
   x1="1370.1"
   y1="1382.34"
   x2="1376.9709"
   y2="1382.34"
   gradientTransform="matrix(1,0,0,-1,0,545.89)">
								<stop
   offset="0"
   style="stop-color:#58258C"
   id="stop89" />
								<stop
   offset="1"
   style="stop-color:#FFFFFF"
   id="stop91" />
							</linearGradient>
							<polygon
   class="st13"
   points="1376.4,-842.5 1377,-842.2 1370.6,-830.4 1370.1,-830.7 "
   id="polygon94"
   style="fill:url(#SVGID_10_)" />
						</g>
						<g
   id="g100">
							<polygon
   class="st5"
   points="1377.9,-834.7 1374,-832.4 1370.6,-830.4 1377,-842.2 1379.8,-843.8 "
   id="polygon98"
   style="fill:#ffffff" />
						</g>
					</g>
				</g>
				<g
   id="g113">
					
						<linearGradient
   id="SVGID_11_"
   gradientUnits="userSpaceOnUse"
   x1="1372.2"
   y1="1375.79"
   x2="1391.1212"
   y2="1375.79"
   gradientTransform="matrix(1,0,0,-1,0,545.89)">
						<stop
   offset="0"
   style="stop-color:#58258C"
   id="stop106" />
						<stop
   offset="1"
   style="stop-color:#FFFFFF"
   id="stop108" />
					</linearGradient>
					<polygon
   class="st14"
   points="1389.3,-825.8 1372.2,-830 1379,-834 1391.1,-826.8 "
   id="polygon111"
   style="fill:url(#SVGID_11_)" />
				</g>
				<g
   id="g281">
					<g
   id="g196">
						<g
   id="g122">
							
								<linearGradient
   id="SVGID_12_"
   gradientUnits="userSpaceOnUse"
   x1="1335.8378"
   y1="1368.1019"
   x2="1336.6853"
   y2="1368.1019"
   gradientTransform="matrix(0.9995,-0.0328,-0.0328,-0.9995,47.2389,603.6953)">
								<stop
   offset="0"
   style="stop-color:#58258C"
   id="stop115" />
								<stop
   offset="1"
   style="stop-color:#151B4E"
   id="stop117" />
							</linearGradient>
							<path
   class="st15"
   d="m 1337.9,-808.2 c 0.2,-0.1 0.4,0 0.4,0.2 v 0.4 c 0,0.3 -0.2,0.6 -0.4,0.7 -0.2,0.1 -0.4,0 -0.4,-0.2 v -0.4 c 0,-0.2 0.2,-0.6 0.4,-0.7 z"
   id="path120"
   inkscape:connector-curvature="0"
   style="fill:url(#SVGID_12_)" />
						</g>
						<g
   id="g131">
							
								<linearGradient
   id="SVGID_13_"
   gradientUnits="userSpaceOnUse"
   x1="1337.2844"
   y1="1368.9521"
   x2="1338.132"
   y2="1368.9521"
   gradientTransform="matrix(0.9995,-0.0328,-0.0328,-0.9995,47.2389,603.6953)">
								<stop
   offset="0"
   style="stop-color:#58258C"
   id="stop124" />
								<stop
   offset="1"
   style="stop-color:#151B4E"
   id="stop126" />
							</linearGradient>
							<path
   class="st16"
   d="m 1339.4,-809.1 c 0.2,-0.1 0.4,0 0.4,0.2 v 0.4 c 0,0.3 -0.2,0.6 -0.4,0.7 -0.2,0.1 -0.4,0 -0.4,-0.2 v -0.4 c -0.1,-0.2 0.1,-0.6 0.4,-0.7 z"
   id="path129"
   inkscape:connector-curvature="0"
   style="fill:url(#SVGID_13_)" />
						</g>
						<g
   id="g140">
							
								<linearGradient
   id="SVGID_14_"
   gradientUnits="userSpaceOnUse"
   x1="1338.7328"
   y1="1369.8058"
   x2="1339.5787"
   y2="1369.8058"
   gradientTransform="matrix(0.9995,-0.0328,-0.0328,-0.9995,47.2389,603.6953)">
								<stop
   offset="0"
   style="stop-color:#58258C"
   id="stop133" />
								<stop
   offset="1"
   style="stop-color:#151B4E"
   id="stop135" />
							</linearGradient>
							<path
   class="st17"
   d="m 1340.8,-810 c 0.2,-0.1 0.4,0 0.4,0.2 v 0.4 c 0,0.3 -0.2,0.6 -0.4,0.7 -0.2,0.1 -0.4,0 -0.4,-0.2 v -0.4 c 0,-0.2 0.1,-0.5 0.4,-0.7 z"
   id="path138"
   inkscape:connector-curvature="0"
   style="fill:url(#SVGID_14_)" />
						</g>
						<g
   id="g149">
							
								<linearGradient
   id="SVGID_15_"
   gradientUnits="userSpaceOnUse"
   x1="1340.1794"
   y1="1370.6594"
   x2="1341.0254"
   y2="1370.6594"
   gradientTransform="matrix(0.9995,-0.0328,-0.0328,-0.9995,47.2389,603.6953)">
								<stop
   offset="0"
   style="stop-color:#58258C"
   id="stop142" />
								<stop
   offset="1"
   style="stop-color:#151B4E"
   id="stop144" />
							</linearGradient>
							<path
   class="st18"
   d="m 1342.2,-810.9 c 0.2,-0.1 0.4,0 0.4,0.2 v 0.4 c 0,0.3 -0.2,0.6 -0.4,0.7 -0.2,0.1 -0.4,0 -0.4,-0.2 v -0.4 c 0,-0.2 0.2,-0.5 0.4,-0.7 z"
   id="path147"
   inkscape:connector-curvature="0"
   style="fill:url(#SVGID_15_)" />
						</g>
						<g
   id="g158">
							
								<linearGradient
   id="SVGID_16_"
   gradientUnits="userSpaceOnUse"
   x1="1341.6261"
   y1="1371.413"
   x2="1342.472"
   y2="1371.413"
   gradientTransform="matrix(0.9995,-0.0328,-0.0328,-0.9995,47.2389,603.6953)">
								<stop
   offset="0"
   style="stop-color:#58258C"
   id="stop151" />
								<stop
   offset="1"
   style="stop-color:#151B4E"
   id="stop153" />
							</linearGradient>
							<path
   class="st19"
   d="m 1343.6,-811.7 c 0.2,-0.1 0.4,0 0.4,0.2 v 0.4 c 0,0.3 -0.2,0.6 -0.4,0.7 -0.2,0.1 -0.4,0 -0.4,-0.2 v -0.4 c 0,-0.3 0.2,-0.6 0.4,-0.7 z"
   id="path156"
   inkscape:connector-curvature="0"
   style="fill:url(#SVGID_16_)" />
						</g>
						<g
   id="g167">
							
								<linearGradient
   id="SVGID_17_"
   gradientUnits="userSpaceOnUse"
   x1="1343.0729"
   y1="1372.2665"
   x2="1343.9187"
   y2="1372.2665"
   gradientTransform="matrix(0.9995,-0.0328,-0.0328,-0.9995,47.2389,603.6953)">
								<stop
   offset="0"
   style="stop-color:#58258C"
   id="stop160" />
								<stop
   offset="1"
   style="stop-color:#151B4E"
   id="stop162" />
							</linearGradient>
							<path
   class="st20"
   d="m 1345,-812.6 c 0.2,-0.1 0.4,0 0.4,0.2 v 0.4 c 0,0.3 -0.2,0.6 -0.4,0.7 -0.2,0.1 -0.4,0 -0.4,-0.2 v -0.4 c 0,-0.3 0.2,-0.6 0.4,-0.7 z"
   id="path165"
   inkscape:connector-curvature="0"
   style="fill:url(#SVGID_17_)" />
						</g>
						<g
   id="g176">
							
								<linearGradient
   id="SVGID_18_"
   gradientUnits="userSpaceOnUse"
   x1="1344.5197"
   y1="1373.1201"
   x2="1345.3671"
   y2="1373.1201"
   gradientTransform="matrix(0.9995,-0.0328,-0.0328,-0.9995,47.2389,603.6953)">
								<stop
   offset="0"
   style="stop-color:#58258C"
   id="stop169" />
								<stop
   offset="1"
   style="stop-color:#151B4E"
   id="stop171" />
							</linearGradient>
							<path
   class="st21"
   d="m 1346.4,-813.5 c 0.2,-0.1 0.4,0 0.4,0.2 v 0.4 c 0,0.3 -0.2,0.6 -0.4,0.7 -0.2,0.1 -0.4,0 -0.4,-0.2 v -0.4 c 0,-0.2 0.2,-0.6 0.4,-0.7 z"
   id="path174"
   inkscape:connector-curvature="0"
   style="fill:url(#SVGID_18_)" />
						</g>
						<g
   id="g185">
							
								<linearGradient
   id="SVGID_19_"
   gradientUnits="userSpaceOnUse"
   x1="1345.9679"
   y1="1373.9705"
   x2="1346.8138"
   y2="1373.9705"
   gradientTransform="matrix(0.9995,-0.0328,-0.0328,-0.9995,47.2389,603.6953)">
								<stop
   offset="0"
   style="stop-color:#58258C"
   id="stop178" />
								<stop
   offset="1"
   style="stop-color:#151B4E"
   id="stop180" />
							</linearGradient>
							<path
   class="st22"
   d="m 1347.9,-814.4 c 0.2,-0.1 0.4,0 0.4,0.2 v 0.4 c 0,0.3 -0.2,0.6 -0.4,0.7 -0.2,0.1 -0.4,0 -0.4,-0.2 v -0.4 c 0,-0.2 0.1,-0.6 0.4,-0.7 z"
   id="path183"
   inkscape:connector-curvature="0"
   style="fill:url(#SVGID_19_)" />
						</g>
						<g
   id="g194">
							
								<linearGradient
   id="SVGID_20_"
   gradientUnits="userSpaceOnUse"
   x1="1347.4146"
   y1="1374.824"
   x2="1348.2604"
   y2="1374.824"
   gradientTransform="matrix(0.9995,-0.0328,-0.0328,-0.9995,47.2389,603.6953)">
								<stop
   offset="0"
   style="stop-color:#58258C"
   id="stop187" />
								<stop
   offset="1"
   style="stop-color:#151B4E"
   id="stop189" />
							</linearGradient>
							<path
   class="st23"
   d="m 1349.3,-815.3 c 0.2,-0.1 0.4,0 0.4,0.2 v 0.4 c 0,0.3 -0.2,0.6 -0.4,0.7 -0.2,0.1 -0.4,0 -0.4,-0.2 v -0.4 c 0,-0.2 0.2,-0.5 0.4,-0.7 z"
   id="path192"
   inkscape:connector-curvature="0"
   style="fill:url(#SVGID_20_)" />
						</g>
					</g>
					<g
   id="g279">
						<g
   id="g205">
							
								<linearGradient
   id="SVGID_21_"
   gradientUnits="userSpaceOnUse"
   x1="1357.312"
   y1="1373.8419"
   x2="1358.1594"
   y2="1373.8419"
   gradientTransform="matrix(0.9999,-0.0162,-0.0162,-0.9999,23.0396,575.0501)">
								<stop
   offset="0"
   style="stop-color:#58258C"
   id="stop198" />
								<stop
   offset="1"
   style="stop-color:#151B4E"
   id="stop200" />
							</linearGradient>
							<path
   class="st24"
   d="m 1358.4,-821.3 c 0.2,-0.1 0.4,0 0.4,0.2 v 0.4 c 0,0.3 -0.2,0.6 -0.4,0.7 -0.2,0.1 -0.4,0 -0.4,-0.2 v -0.4 c 0,-0.3 0.1,-0.6 0.4,-0.7 z"
   id="path203"
   inkscape:connector-curvature="0"
   style="fill:url(#SVGID_21_)" />
						</g>
						<g
   id="g214">
							
								<linearGradient
   id="SVGID_22_"
   gradientUnits="userSpaceOnUse"
   x1="1358.7595"
   y1="1374.7191"
   x2="1359.6069"
   y2="1374.7191"
   gradientTransform="matrix(0.9999,-0.0162,-0.0162,-0.9999,23.0396,575.0501)">
								<stop
   offset="0"
   style="stop-color:#58258C"
   id="stop207" />
								<stop
   offset="1"
   style="stop-color:#151B4E"
   id="stop209" />
							</linearGradient>
							<path
   class="st25"
   d="m 1359.8,-822.2 c 0.2,-0.1 0.4,0 0.4,0.2 v 0.4 c 0,0.3 -0.2,0.6 -0.4,0.7 -0.2,0.1 -0.4,0 -0.4,-0.2 v -0.4 c 0,-0.2 0.2,-0.6 0.4,-0.7 z"
   id="path212"
   inkscape:connector-curvature="0"
   style="fill:url(#SVGID_22_)" />
						</g>
						<g
   id="g223">
							
								<linearGradient
   id="SVGID_23_"
   gradientUnits="userSpaceOnUse"
   x1="1360.207"
   y1="1375.5962"
   x2="1361.0529"
   y2="1375.5962"
   gradientTransform="matrix(0.9999,-0.0162,-0.0162,-0.9999,23.0396,575.0501)">
								<stop
   offset="0"
   style="stop-color:#58258C"
   id="stop216" />
								<stop
   offset="1"
   style="stop-color:#151B4E"
   id="stop218" />
							</linearGradient>
							<path
   class="st26"
   d="m 1361.2,-823.1 c 0.2,-0.1 0.4,0 0.4,0.2 v 0.4 c 0,0.3 -0.2,0.6 -0.4,0.7 -0.2,0.1 -0.4,0 -0.4,-0.2 v -0.4 c 0,-0.2 0.2,-0.5 0.4,-0.7 z"
   id="path221"
   inkscape:connector-curvature="0"
   style="fill:url(#SVGID_23_)" />
						</g>
						<g
   id="g232">
							
								<linearGradient
   id="SVGID_24_"
   gradientUnits="userSpaceOnUse"
   x1="1361.6536"
   y1="1376.3718"
   x2="1362.4996"
   y2="1376.3718"
   gradientTransform="matrix(0.9999,-0.0162,-0.0162,-0.9999,23.0396,575.0501)">
								<stop
   offset="0"
   style="stop-color:#58258C"
   id="stop225" />
								<stop
   offset="1"
   style="stop-color:#151B4E"
   id="stop227" />
							</linearGradient>
							<path
   class="st27"
   d="m 1362.7,-823.9 c 0.2,-0.1 0.4,0 0.4,0.2 v 0.4 c 0,0.3 -0.2,0.6 -0.4,0.7 -0.2,0.1 -0.4,0 -0.4,-0.2 v -0.4 c 0,-0.3 0.1,-0.6 0.4,-0.7 z"
   id="path230"
   inkscape:connector-curvature="0"
   style="fill:url(#SVGID_24_)" />
						</g>
						<g
   id="g241">
							
								<linearGradient
   id="SVGID_25_"
   gradientUnits="userSpaceOnUse"
   x1="1363.1008"
   y1="1377.249"
   x2="1363.9468"
   y2="1377.249"
   gradientTransform="matrix(0.9999,-0.0162,-0.0162,-0.9999,23.0396,575.0501)">
								<stop
   offset="0"
   style="stop-color:#58258C"
   id="stop234" />
								<stop
   offset="1"
   style="stop-color:#151B4E"
   id="stop236" />
							</linearGradient>
							<path
   class="st28"
   d="m 1364.1,-824.8 c 0.2,-0.1 0.4,0 0.4,0.2 v 0.4 c 0,0.3 -0.2,0.6 -0.4,0.7 -0.2,0.1 -0.4,0 -0.4,-0.2 v -0.4 c 0,-0.2 0.2,-0.5 0.4,-0.7 z"
   id="path239"
   inkscape:connector-curvature="0"
   style="fill:url(#SVGID_25_)" />
						</g>
						<g
   id="g250">
							
								<linearGradient
   id="SVGID_26_"
   gradientUnits="userSpaceOnUse"
   x1="1364.5471"
   y1="1378.0261"
   x2="1365.3929"
   y2="1378.0261"
   gradientTransform="matrix(0.9999,-0.0162,-0.0162,-0.9999,23.0396,575.0501)">
								<stop
   offset="0"
   style="stop-color:#58258C"
   id="stop243" />
								<stop
   offset="1"
   style="stop-color:#151B4E"
   id="stop245" />
							</linearGradient>
							<path
   class="st29"
   d="m 1365.5,-825.6 c 0.2,-0.1 0.4,0 0.4,0.2 v 0.4 c 0,0.3 -0.2,0.6 -0.4,0.7 -0.2,0.1 -0.4,0 -0.4,-0.2 v -0.4 c 0,-0.3 0.2,-0.6 0.4,-0.7 z"
   id="path248"
   inkscape:connector-curvature="0"
   style="fill:url(#SVGID_26_)" />
						</g>
						<g
   id="g259">
							
								<linearGradient
   id="SVGID_27_"
   gradientUnits="userSpaceOnUse"
   x1="1365.9937"
   y1="1378.9017"
   x2="1366.8412"
   y2="1378.9017"
   gradientTransform="matrix(0.9999,-0.0162,-0.0162,-0.9999,23.0396,575.0501)">
								<stop
   offset="0"
   style="stop-color:#58258C"
   id="stop252" />
								<stop
   offset="1"
   style="stop-color:#151B4E"
   id="stop254" />
							</linearGradient>
							<path
   class="st30"
   d="m 1367,-826.5 c 0.2,-0.1 0.4,0 0.4,0.2 v 0.4 c 0,0.3 -0.2,0.6 -0.4,0.7 -0.2,0.1 -0.4,0 -0.4,-0.2 v -0.4 c 0,-0.2 0.1,-0.6 0.4,-0.7 z"
   id="path257"
   inkscape:connector-curvature="0"
   style="fill:url(#SVGID_27_)" />
						</g>
						<g
   id="g268">
							
								<linearGradient
   id="SVGID_28_"
   gradientUnits="userSpaceOnUse"
   x1="1367.4424"
   y1="1379.7789"
   x2="1368.2885"
   y2="1379.7789"
   gradientTransform="matrix(0.9999,-0.0162,-0.0162,-0.9999,23.0396,575.0501)">
								<stop
   offset="0"
   style="stop-color:#58258C"
   id="stop261" />
								<stop
   offset="1"
   style="stop-color:#151B4E"
   id="stop263" />
							</linearGradient>
							<path
   class="st31"
   d="m 1368.4,-827.4 c 0.2,-0.1 0.4,0 0.4,0.2 v 0.4 c 0,0.3 -0.2,0.6 -0.4,0.7 -0.2,0.1 -0.4,0 -0.4,-0.2 v -0.4 c 0,-0.2 0.2,-0.5 0.4,-0.7 z"
   id="path266"
   inkscape:connector-curvature="0"
   style="fill:url(#SVGID_28_)" />
						</g>
						<g
   id="g277">
							
								<linearGradient
   id="SVGID_29_"
   gradientUnits="userSpaceOnUse"
   x1="1368.8885"
   y1="1380.5562"
   x2="1369.7346"
   y2="1380.5562"
   gradientTransform="matrix(0.9999,-0.0162,-0.0162,-0.9999,23.0396,575.0501)">
								<stop
   offset="0"
   style="stop-color:#58258C"
   id="stop270" />
								<stop
   offset="1"
   style="stop-color:#151B4E"
   id="stop272" />
							</linearGradient>
							<path
   class="st32"
   d="m 1369.8,-828.2 c 0.2,-0.1 0.4,0 0.4,0.2 v 0.4 c 0,0.3 -0.2,0.6 -0.4,0.7 -0.2,0.1 -0.4,0 -0.4,-0.2 v -0.4 c 0,-0.3 0.2,-0.6 0.4,-0.7 z"
   id="path275"
   inkscape:connector-curvature="0"
   style="fill:url(#SVGID_29_)" />
						</g>
					</g>
				</g>
			</g>
		</g>
	</g>
</g>
<path
   class="st5"
   d="m 0.1,245.125 c 51.9,13.2 100.7,34 147.9,59 21,11.1 42.1,22.1 65.4,27.8 32.1,7.9 63.8,6.6 95.1,-3.8 18.5,-6.2 35.3,-15.8 51.8,-26.1 15,-9.4 30.1,-18.7 45.3,-27.7 22.3,-13.2 46.7,-19.8 72.3,-22.1 21.6,-2 43.2,-2.8 64.9,-1 20.3,1.7 40.5,4.4 60.7,7.1 39.2,5.2 78.3,11.1 117.8,12 24.7,0.6 49.2,-1 73.1,-7.8 29,-8.2 50.6,-26.5 68.1,-50.5 12.2,-16.7 23.3,-34.3 36.1,-50.5 20.4,-25.7 45.6,-44.8 75.9,-57.3 28.2,-11.6 57.5,-17 87.8,-18.5 32.7,-1.6 65.2,1.2 97.8,3.2 23,1.5 46,3 69.1,4.4 24.7,1.6 49.5,2.1 74.2,2.6 27.3,0.6 53.1,-5.8 78.3,-15.4 36.7,-13.9 72,-31.3 108.4,-45.9 35.3,-14.2 71.2,-25.9 108.1,-34.5 0.6,-0.2 1.2,-0.1 1.7,-0.1 0,144 0,237 0.1,381 0,3 -0.4,4 -3.8,4 -530.8,-0.1 -1061.6,-0.1 -1592.4,0 -3.3,0 -3.8,-0.8 -3.8,-3.9 0.1,-62.4 0.1,-73.7 0.1,-136 z"
   id="path291"
   inkscape:connector-curvature="0"
   style="fill:#323680;fill-opacity:1;stroke:#323680;stroke-opacity:1"
   sodipodi:nodetypes="ccccccccccccccccccccccccccc" />
</svg>